<?xml version="1.0" encoding="utf-8" ?>
<svg baseProfile="tiny" height="843px" version="1.2" viewBox="76 59 756 843" width="756px" xmlns="http://www.w3.org/2000/svg" xmlns:ev="http://www.w3.org/2001/xml-events" xmlns:xlink="http://www.w3.org/1999/xlink"><defs /><path d="M 738,299 L 575,462 L 668,555 L 669,555 L 831,393 L 831,392 L 802,363 L 802,362 L 801,362 L 796,357 L 796,356 L 795,356 L 793,354 L 793,353 L 792,353 L 791,352 L 791,351 L 739,299 Z" fill="rgb(27,25,24)" /><path d="M 272,285 L 272,286 L 245,313 L 244,313 L 244,314 L 243,315 L 242,315 L 239,318 L 239,319 L 238,320 L 237,320 L 236,321 L 236,322 L 235,323 L 234,323 L 76,481 L 76,482 L 106,512 L 106,513 L 107,513 L 142,548 L 142,549 L 143,549 L 151,557 L 151,558 L 153,558 L 349,362 L 349,361 L 348,361 L 306,319 L 306,318 L 305,317 L 304,317 L 303,316 L 303,315 L 298,310 L 297,310 L 294,307 L 294,306 L 289,301 L 288,301 L 287,300 L 287,299 L 273,285 Z" fill="rgb(28,26,26)" /><path d="M 498,281 L 407,372 L 407,373 L 402,378 L 401,378 L 401,379 L 395,385 L 394,385 L 394,386 L 387,393 L 386,393 L 386,394 L 363,417 L 362,417 L 362,418 L 182,598 L 182,599 L 183,600 L 183,601 L 483,901 L 484,901 L 546,839 L 546,838 L 565,819 L 565,818 L 469,722 L 469,721 L 467,719 L 615,571 L 616,571 L 616,570 L 535,489 L 534,489 L 385,638 L 361,614 L 361,613 L 360,613 L 359,612 L 359,611 L 358,610 L 357,610 L 356,609 L 356,608 L 346,598 L 345,598 L 344,597 L 344,596 L 373,567 L 374,567 L 374,566 L 387,553 L 388,553 L 388,552 L 389,551 L 390,551 L 391,550 L 391,549 L 392,548 L 393,548 L 395,546 L 395,545 L 396,544 L 397,544 L 398,543 L 398,542 L 399,541 L 400,541 L 400,540 L 401,539 L 402,539 L 403,538 L 403,537 L 404,536 L 405,536 L 406,535 L 406,534 L 412,528 L 413,528 L 579,362 L 579,361 L 499,281 Z" fill="rgb(28,135,195)" /><path d="M 609,170 L 531,248 L 531,249 L 532,249 L 534,251 L 534,252 L 535,253 L 536,253 L 539,256 L 539,257 L 552,270 L 553,270 L 554,271 L 554,272 L 609,327 L 611,327 L 670,268 L 670,267 L 671,266 L 672,266 L 675,263 L 675,262 L 680,257 L 681,257 L 681,256 L 682,255 L 683,255 L 684,254 L 684,253 L 687,250 L 688,250 L 688,249 L 612,173 L 612,172 L 611,172 L 610,171 L 610,170 Z" fill="rgb(29,27,26)" /><path d="M 496,59 L 496,60 L 409,147 L 408,147 L 408,148 L 401,155 L 400,155 L 400,156 L 397,159 L 396,159 L 393,162 L 393,163 L 363,193 L 362,193 L 362,194 L 341,215 L 340,215 L 340,216 L 323,233 L 322,233 L 322,234 L 319,237 L 318,237 L 317,238 L 317,239 L 316,240 L 315,240 L 314,241 L 314,242 L 309,247 L 308,247 L 306,249 L 306,250 L 305,251 L 305,252 L 382,329 L 574,137 L 574,136 L 497,59 Z" fill="rgb(27,25,24)" /></svg>